<?xml version="1.0" standalone="no"?>
<!DOCTYPE svg PUBLIC "-//W3C//DTD SVG 20010904//EN"
 "http://www.w3.org/TR/2001/REC-SVG-20010904/DTD/svg10.dtd">
<svg version="1.0" xmlns="http://www.w3.org/2000/svg"
 width="559.000000pt" height="457.000000pt" viewBox="0 0 559.000000 457.000000"
 preserveAspectRatio="xMidYMid meet">

<g transform="translate(0.000000,457.000000) scale(0.100000,-0.100000)"
fill="#000000" stroke="none">
<path d="M1040 2475 l0 -1635 140 0 140 0 0 -135 0 -135 1205 0 1205 0 0 1630
0 1630 -140 0 -140 0 0 140 0 140 -1205 0 -1205 0 0 -1635z m2310 5 l0 -1540
-1105 0 -1105 0 0 1540 0 1540 1105 0 1105 0 0 -1540z m280 -280 l0 -1540
-1105 0 -1105 0 0 90 0 90 1015 0 1015 0 0 1450 0 1450 90 0 90 0 0 -1540z"/>
<path d="M1322 3388 l3 -443 443 -3 442 -2 0 445 0 445 -445 0 -445 0 2 -442z
m654 352 l144 0 0 -350 0 -350 -350 0 -350 0 0 350 0 350 163 3 c89 2 182 2
206 0 24 -2 108 -3 187 -3z"/>
<path d="M1545 3460 c-8 -13 14 -42 26 -34 5 3 9 14 9 25 0 20 -24 26 -35 9z"/>
<path d="M1953 3454 c-7 -18 11 -39 26 -30 17 11 13 46 -4 46 -9 0 -18 -7 -22
-16z"/>
<path d="M2420 3785 l0 -45 370 0 370 0 0 45 0 45 -370 0 -370 0 0 -45z"/>
<path d="M2420 3495 l0 -45 370 0 370 0 0 45 0 45 -370 0 -370 0 0 -45z"/>
<path d="M1330 2710 l0 -50 915 0 915 0 0 50 0 50 -915 0 -915 0 0 -50z"/>
<path d="M1330 2420 l0 -50 915 0 915 0 0 50 0 50 -915 0 -915 0 0 -50z"/>
<path d="M1330 2125 l0 -45 915 0 915 0 0 45 0 45 -915 0 -915 0 0 -45z"/>
<path d="M1330 1835 l0 -45 915 0 915 0 0 45 0 45 -915 0 -915 0 0 -45z"/>
<path d="M2530 1185 l0 -45 315 0 315 0 0 45 0 45 -315 0 -315 0 0 -45z"/>
<path d="M4040 2581 c-74 -39 -69 17 -72 -892 -3 -897 -6 -853 59 -894 32 -20
32 -21 33 -97 l0 -78 50 0 50 0 0 73 c0 71 1 72 36 101 67 53 64 12 64 898 0
784 -1 804 -20 836 -42 68 -129 91 -200 53z m101 -81 c14 -8 19 -21 19 -55 l0
-45 -50 0 -50 0 0 39 c0 30 6 44 22 55 26 19 33 19 59 6z m19 -745 l0 -545
-50 0 -50 0 0 545 0 545 50 0 50 0 0 -545z m0 -760 c0 -103 -2 -115 -19 -125
-62 -33 -81 -2 -81 131 l0 109 50 0 50 0 0 -115z"/>
</g>
</svg>
